<svg version="1.1" id="Layer_1" xmlns="http://www.w3.org/2000/svg" xmlns:xlink="http://www.w3.org/1999/xlink" x="0px" y="0px"
	 width="100%" viewBox="0 0 893 893" enable-background="new 0 0 893 893" xml:space="preserve">
<path fill="#010001" opacity="1.000000" stroke="none" 
	d="
M1.000000,318.000000 
	C1.000000,212.000000 1.000000,106.500000 1.000000,1.000000 
	C298.666656,1.000000 596.333313,1.000000 894.000000,1.000000 
	C894.000000,298.666656 894.000000,596.333313 894.000000,894.000000 
	C596.333313,894.000000 298.666656,894.000000 1.000000,894.000000 
	C1.000000,702.166687 1.000000,510.333344 1.000000,318.000000 
M232.909470,842.379700 
	C233.740829,842.408325 234.572189,842.462097 235.403549,842.462158 
	C321.781555,842.468079 408.159546,842.471558 494.537537,842.458740 
	C496.024994,842.458496 497.512421,842.258911 499.913452,842.381653 
	C557.239624,842.411072 614.566589,842.278870 671.891479,842.569153 
	C688.932129,842.655396 705.670227,841.450378 722.009521,836.419373 
	C744.935730,829.360168 765.872681,818.752380 783.055237,801.653137 
	C789.335876,795.402893 795.630554,789.109741 801.315613,782.330322 
	C812.151428,769.408569 820.434265,754.898193 826.172791,739.011108 
	C832.021423,722.819214 836.448486,706.223328 836.507507,688.921387 
	C836.710388,629.428711 836.589661,569.934937 836.571655,510.441589 
	C836.570984,508.287567 836.353210,506.133606 836.491455,503.077911 
	C836.522888,502.246704 836.581848,501.415527 836.581848,500.584320 
	C836.585938,405.550812 836.587219,310.517303 836.571106,215.483780 
	C836.570862,213.998337 836.353271,212.512909 836.491394,210.117828 
	C835.791260,197.572296 836.464966,184.766129 834.143311,172.528229 
	C825.915161,129.156998 802.837830,94.958099 766.773193,69.727417 
	C748.450745,56.909134 727.719971,49.245811 705.837891,45.161644 
	C696.730652,43.461834 687.290161,43.547394 677.088989,42.583889 
	C676.257568,42.553093 675.426208,42.495361 674.594788,42.495319 
	C573.218262,42.490208 471.841797,42.487942 370.465302,42.501995 
	C368.978119,42.502201 367.490936,42.708351 365.091003,42.581345 
	C309.429779,42.550385 253.768311,42.426105 198.107590,42.577843 
	C188.528091,42.603962 178.866150,43.208862 169.390030,44.572823 
	C140.554611,48.723286 115.049980,61.005474 93.102776,79.701073 
	C73.617668,96.299347 58.143127,116.381279 48.517330,140.524765 
	C41.081127,159.176285 36.469551,178.293671 36.533806,198.541595 
	C36.709389,253.869919 36.589809,309.199158 36.605179,364.528046 
	C36.605782,366.685364 36.792030,368.842621 36.673782,371.915680 
	C36.647881,372.747375 36.599319,373.579041 36.599285,374.410736 
	C36.595261,479.784912 36.593567,585.159119 36.606712,690.533264 
	C36.606899,692.022095 36.795559,693.510986 36.679283,695.854492 
	C37.301533,700.428528 37.824364,705.018738 38.561596,709.574158 
	C45.119423,750.095703 65.482750,782.534363 96.936943,808.270691 
	C116.026161,823.889893 138.003784,833.912903 161.963852,839.323975 
	C185.077744,844.543884 208.606155,842.243591 232.909470,842.379700 
z"/>
<path fill="#9548AC" opacity="1.000000" stroke="none" 
	d="
M366.003754,42.818382 
	C367.490936,42.708351 368.978119,42.502201 370.465302,42.501995 
	C471.841797,42.487942 573.218262,42.490208 674.594788,42.495319 
	C675.426208,42.495361 676.257568,42.553093 677.532593,43.094833 
	C676.927673,45.340305 676.165588,47.360538 674.775452,48.754253 
	C671.024963,52.514393 666.843750,55.848621 663.140381,59.650818 
	C659.315674,63.577564 655.978699,67.976425 652.199402,71.951118 
	C647.329285,77.073135 642.241821,81.989075 637.220032,86.965668 
	C636.523132,87.656334 635.622192,88.136848 634.892334,88.799164 
	C630.956543,92.370628 626.876038,95.803986 623.171875,99.603310 
	C619.345581,103.528000 616.023560,107.941139 612.244934,111.916222 
	C607.375610,117.038673 602.281189,121.947647 597.257874,126.922470 
	C596.559937,127.613686 595.675171,128.112534 594.943665,128.774261 
	C591.002563,132.339523 586.908142,135.758072 583.203430,139.555695 
	C579.376038,143.478928 576.068542,147.905884 572.290466,151.881439 
	C567.421997,157.004272 562.331970,161.917786 557.298645,166.882202 
	C553.960876,170.174377 550.607666,173.454437 547.166016,176.636887 
	C543.264709,180.244385 539.061157,183.544952 535.349609,187.332382 
	C531.515381,191.245056 528.259827,195.720291 524.487732,199.699783 
	C519.511963,204.949188 514.290771,209.966690 509.144226,215.052689 
	C508.447815,215.740936 507.515381,216.185669 506.789093,216.849167 
	C502.865204,220.433685 498.814026,223.897949 495.111633,227.700516 
	C491.287231,231.628342 487.937683,236.015991 484.152435,239.985092 
	C479.388336,244.980545 474.412231,249.775055 469.490662,254.618713 
	C466.033875,258.020752 462.559906,261.407867 459.012360,264.714447 
	C455.125305,268.337463 450.962402,271.682068 447.255676,275.476227 
	C443.426086,279.396179 440.139801,283.843201 436.362915,287.819397 
	C431.495972,292.943237 426.393829,297.844666 421.361725,302.810272 
	C418.024017,306.103912 415.045837,310.007019 411.155121,312.431000 
	C406.645050,315.240845 404.828888,319.339447 402.595764,323.881653 
	C383.709351,327.451752 365.242493,330.956726 346.730072,334.201477 
	C344.523224,334.588257 341.706146,334.187836 339.782867,333.085968 
	C318.015167,320.614746 294.528412,314.472046 269.576111,314.545258 
	C232.666992,314.653564 199.565216,325.339844 173.195938,352.283630 
	C142.490967,383.657532 140.338898,428.256348 167.413773,462.179962 
	C175.613953,472.454407 185.292145,481.220825 196.899384,487.260437 
	C203.738388,490.819000 207.427139,495.330933 208.804581,502.849915 
	C209.928879,508.986969 212.510361,514.857056 214.071304,520.911804 
	C212.538925,521.838928 211.245178,522.566650 210.247513,523.584595 
	C206.698135,527.206116 203.301254,530.977112 199.750259,534.596924 
	C194.847076,539.595154 189.857590,544.508606 184.902832,549.456116 
	C181.778168,552.576233 178.729584,555.778198 175.502060,558.788147 
	C171.567322,562.457703 167.304169,565.788208 163.509445,569.591064 
	C159.708893,573.399658 156.402130,577.695801 152.707870,581.617126 
	C149.570343,584.947510 146.235733,588.097839 142.903580,591.237915 
	C138.990372,594.925598 134.838654,598.370850 131.061218,602.189148 
	C127.157005,606.135559 123.680161,610.501831 119.830673,614.506042 
	C114.979012,619.552612 109.942307,624.421448 104.979408,629.360962 
	C101.732651,632.592468 98.543762,635.886169 95.204659,639.019592 
	C91.282120,642.700562 87.058998,646.073120 83.272911,649.884155 
	C79.479767,653.702209 76.151070,657.977173 72.456978,661.899475 
	C69.433479,665.109802 66.221832,668.148987 63.003311,671.167847 
	C59.080830,674.846924 54.923878,678.285522 51.127758,682.087158 
	C47.439949,685.780334 44.158752,689.877625 40.516422,693.619690 
	C39.699409,694.459045 38.123028,694.559326 36.896255,694.999817 
	C36.795559,693.510986 36.606899,692.022095 36.606712,690.533264 
	C36.593567,585.159119 36.595261,479.784912 36.599285,374.410736 
	C36.599319,373.579041 36.647881,372.747375 37.147163,371.423218 
	C39.980007,369.196625 42.598724,367.724365 44.657364,365.686371 
	C59.318752,351.172028 73.863708,336.540100 88.449783,321.949615 
	C103.274223,307.120758 118.108643,292.301849 132.928940,277.468842 
	C147.276047,263.109467 161.599518,248.726471 175.953949,234.374405 
	C190.899185,219.431610 205.881775,204.526169 220.824432,189.580811 
	C235.176483,175.226212 249.483063,160.826126 263.837646,146.474045 
	C278.782867,131.531418 293.768372,116.629089 308.723907,101.696716 
	C323.441193,87.002205 338.207062,72.355377 352.813934,57.551785 
	C357.438171,52.865257 361.619659,47.741859 366.003754,42.818382 
z"/>
<path fill="#A543A1" opacity="1.000000" stroke="none" 
	d="
M836.237122,211.027481 
	C836.353271,212.512909 836.570862,213.998337 836.571106,215.483780 
	C836.587219,310.517303 836.585938,405.550812 836.581848,500.584320 
	C836.581848,501.415527 836.522888,502.246704 836.044312,503.585266 
	C833.302917,505.607361 830.893188,506.976746 828.748962,508.680267 
	C826.845947,510.192230 825.229736,512.067383 823.500610,513.795898 
	C819.914001,517.381287 816.281738,520.923340 812.770142,524.580933 
	C809.031860,528.474609 805.548340,532.620850 801.700745,536.399353 
	C797.854370,540.176697 793.611389,543.547119 789.699768,547.261841 
	C786.620911,550.185669 783.748962,553.331116 780.844421,556.433716 
	C777.155273,560.374451 773.603943,564.446594 769.851318,568.324951 
	C765.087891,573.248108 760.196350,578.047852 755.332886,582.873474 
	C751.961121,586.218994 748.586609,589.564026 745.134949,592.826355 
	C741.214050,596.532227 737.125061,600.062561 733.255981,603.820435 
	C728.458069,608.480347 723.805176,613.289795 719.100342,618.045288 
	C715.647522,621.535400 712.166565,624.999329 708.781311,628.554138 
	C705.058655,632.463196 701.570129,636.604248 697.723083,640.383057 
	C693.877197,644.160706 689.630188,647.526917 685.716980,651.239990 
	C682.636719,654.162598 679.762512,657.306458 676.858643,660.409912 
	C673.170593,664.351440 669.608032,668.411926 665.871826,672.306458 
	C663.045227,675.252808 660.066895,678.057190 657.091980,680.856689 
	C653.162964,684.554016 649.095276,688.106445 645.225952,691.864014 
	C640.427612,696.523743 635.750183,701.308716 631.060425,706.078918 
	C627.505615,709.694702 624.005798,713.364685 620.495361,717.023743 
	C616.757324,720.919922 613.136902,724.935242 609.278320,728.707520 
	C605.422485,732.477234 601.249573,735.921631 597.371460,739.669922 
	C592.444824,744.431824 587.665588,749.346680 582.841309,754.213928 
	C579.499329,757.585815 576.138123,760.940918 572.877258,764.390320 
	C569.169495,768.312622 565.712585,772.482483 561.872131,776.266113 
	C558.032593,780.048828 553.757507,783.386169 549.854004,787.108215 
	C546.663269,790.150879 543.724304,793.459045 540.699158,796.673401 
	C536.999207,800.604675 533.387207,804.620605 529.625366,808.491211 
	C524.965149,813.286255 520.208252,817.988037 515.458740,822.695435 
	C511.969513,826.153809 508.750305,830.008484 504.806519,832.847046 
	C501.377625,835.314941 499.392578,838.081421 498.999878,842.152344 
	C497.512421,842.258911 496.024994,842.458496 494.537537,842.458740 
	C408.159546,842.471558 321.781555,842.468079 235.403549,842.462158 
	C234.572189,842.462097 233.740829,842.408325 232.538879,841.924438 
	C233.713196,839.545166 235.093018,837.456116 236.826889,835.720825 
	C303.985962,768.505493 371.189392,701.334473 438.306091,634.076843 
	C440.295013,632.083679 441.416412,629.224854 443.333008,626.641357 
	C461.933014,624.678040 480.320587,623.883301 498.315948,620.799744 
	C540.739868,613.530334 580.238403,598.603577 614.586426,571.915466 
	C635.322327,555.803833 651.964417,536.346924 661.488464,511.508789 
	C662.827698,508.016266 664.822388,506.252197 668.272644,505.061096 
	C690.193970,497.493500 709.489807,485.692413 725.586853,468.855957 
	C756.577759,436.441376 765.284119,392.088806 747.457886,352.973480 
	C742.883118,342.935303 735.900146,333.994598 730.308777,324.268127 
	C730.705505,322.447754 731.263000,320.772949 730.843201,319.396149 
	C729.678162,315.575043 730.509338,313.067993 734.287476,311.293304 
	C735.906311,310.532867 737.045532,308.730194 738.368774,307.368042 
	C739.586792,306.114227 740.743164,304.800659 741.955933,303.541626 
	C743.485168,301.954193 745.049988,300.401215 746.587891,298.822021 
	C747.593750,297.789154 748.559021,296.716309 749.578064,295.696899 
	C751.244934,294.029449 752.947144,292.397369 754.622009,290.737854 
	C755.645813,289.723358 756.641724,288.680756 757.658508,287.659088 
	C759.321655,285.987915 760.971863,284.303162 762.665527,282.663422 
	C763.811707,281.553680 764.998535,280.482544 766.212158,279.446808 
	C767.430786,278.406769 768.867126,277.577820 769.925659,276.402130 
	C773.535889,272.392029 777.010742,268.260193 780.574829,264.207886 
	C780.876770,263.864624 781.552124,263.865234 781.893188,263.538330 
	C783.483948,262.013397 785.012390,260.423676 786.574585,258.868622 
	C787.704834,257.743378 788.867310,256.650177 789.989868,255.517349 
	C791.541504,253.951614 793.070129,252.363113 794.606628,250.782364 
	C795.611389,249.748642 796.599915,248.698807 797.617798,247.678299 
	C799.282776,246.008957 800.951233,244.342606 802.646362,242.704056 
	C803.793396,241.595291 805.014282,240.562607 806.156067,239.448669 
	C807.624084,238.016403 809.085754,236.573364 810.473206,235.064255 
	C811.345764,234.115158 811.937317,232.874908 812.896362,232.043793 
	C816.975098,228.508759 822.442505,225.814224 824.937744,221.414658 
	C827.796326,216.374374 832.787476,214.764557 836.237122,211.027481 
z"/>
<path fill="#9E45A6" opacity="1.000000" stroke="none" 
	d="
M442.942322,626.769653 
	C441.416412,629.224854 440.295013,632.083679 438.306091,634.076843 
	C371.189392,701.334473 303.985962,768.505493 236.826889,835.720825 
	C235.093018,837.456116 233.713196,839.545166 232.081909,841.809204 
	C208.606155,842.243591 185.077744,844.543884 161.963852,839.323975 
	C138.003784,833.912903 116.026161,823.889893 96.936943,808.270691 
	C65.482750,782.534363 45.119423,750.095703 38.561596,709.574158 
	C37.824364,705.018738 37.301533,700.428528 36.787773,695.427124 
	C38.123028,694.559326 39.699409,694.459045 40.516422,693.619690 
	C44.158752,689.877625 47.439949,685.780334 51.127758,682.087158 
	C54.923878,678.285522 59.080830,674.846924 63.003311,671.167847 
	C66.221832,668.148987 69.433479,665.109802 72.456978,661.899475 
	C76.151070,657.977173 79.479767,653.702209 83.272911,649.884155 
	C87.058998,646.073120 91.282120,642.700562 95.204659,639.019592 
	C98.543762,635.886169 101.732651,632.592468 104.979408,629.360962 
	C109.942307,624.421448 114.979012,619.552612 119.830673,614.506042 
	C123.680161,610.501831 127.157005,606.135559 131.061218,602.189148 
	C134.838654,598.370850 138.990372,594.925598 142.903580,591.237915 
	C146.235733,588.097839 149.570343,584.947510 152.707870,581.617126 
	C156.402130,577.695801 159.708893,573.399658 163.509445,569.591064 
	C167.304169,565.788208 171.567322,562.457703 175.502060,558.788147 
	C178.729584,555.778198 181.778168,552.576233 184.902832,549.456116 
	C189.857590,544.508606 194.847076,539.595154 199.750259,534.596924 
	C203.301254,530.977112 206.698135,527.206116 210.247513,523.584595 
	C211.245178,522.566650 212.538925,521.838928 214.361023,521.087402 
	C225.306442,540.466919 238.872314,556.816650 256.232819,570.312744 
	C294.938019,600.401978 339.316498,616.236450 387.233215,622.807739 
	C405.637848,625.331787 424.363129,625.518127 442.942322,626.769653 
M105.962715,782.732971 
	C110.617264,782.731079 115.280930,782.889221 119.920563,782.625183 
	C121.232094,782.550537 122.473358,781.241211 123.746811,780.498230 
	C122.595497,779.618652 121.475433,778.042603 120.287071,777.989319 
	C116.626732,777.825073 115.890038,775.857971 115.954201,772.757324 
	C116.057365,767.772461 116.134422,762.777283 115.923874,757.799011 
	C115.767723,754.106934 115.137749,750.434875 114.718834,746.753906 
	C110.752678,748.102722 106.719780,749.293091 102.868690,750.915161 
	C101.939041,751.306641 101.610931,753.126343 101.006233,754.289307 
	C102.266830,754.483215 103.594452,755.017273 104.771133,754.785400 
	C106.260277,754.491943 107.626579,753.575256 110.281799,752.363159 
	C110.281799,759.717468 110.128471,765.959412 110.338020,772.189087 
	C110.468376,776.064636 109.442398,778.163757 105.093430,777.998108 
	C103.910065,777.953064 102.667404,779.465088 101.451950,780.262451 
	C102.663406,781.078918 103.874863,781.895386 105.962715,782.732971 
z"/>
<path fill="#9C45A6" opacity="1.000000" stroke="none" 
	d="
M836.364258,210.572662 
	C832.787476,214.764557 827.796326,216.374374 824.937744,221.414658 
	C822.442505,225.814224 816.975098,228.508759 812.896362,232.043793 
	C811.937317,232.874908 811.345764,234.115158 810.473206,235.064255 
	C809.085754,236.573364 807.624084,238.016403 806.156067,239.448669 
	C805.014282,240.562607 803.793396,241.595291 802.646362,242.704056 
	C800.951233,244.342606 799.282776,246.008957 797.617798,247.678299 
	C796.599915,248.698807 795.611389,249.748642 794.606628,250.782364 
	C793.070129,252.363113 791.541504,253.951614 789.989868,255.517349 
	C788.867310,256.650177 787.704834,257.743378 786.574585,258.868622 
	C785.012390,260.423676 783.483948,262.013397 781.893188,263.538330 
	C781.552124,263.865234 780.876770,263.864624 780.574829,264.207886 
	C777.010742,268.260193 773.535889,272.392029 769.925659,276.402130 
	C768.867126,277.577820 767.430786,278.406769 766.212158,279.446808 
	C764.998535,280.482544 763.811707,281.553680 762.665527,282.663422 
	C760.971863,284.303162 759.321655,285.987915 757.658508,287.659088 
	C756.641724,288.680756 755.645813,289.723358 754.622009,290.737854 
	C752.947144,292.397369 751.244934,294.029449 749.578064,295.696899 
	C748.559021,296.716309 747.593750,297.789154 746.587891,298.822021 
	C745.049988,300.401215 743.485168,301.954193 741.955933,303.541626 
	C740.743164,304.800659 739.586792,306.114227 738.368774,307.368042 
	C737.045532,308.730194 735.906311,310.532867 734.287476,311.293304 
	C730.509338,313.067993 729.678162,315.575043 730.843201,319.396149 
	C731.263000,320.772949 730.705505,322.447754 730.035889,324.119812 
	C715.971375,309.116455 699.960449,297.368622 681.442566,289.118866 
	C645.444275,273.081665 608.189941,270.327179 570.157166,279.845459 
	C541.190186,287.094940 515.697388,300.677429 495.767761,323.622833 
	C494.282349,325.333038 490.885193,326.485992 488.578491,326.210297 
	C463.439362,323.205597 438.266266,321.669769 412.956451,323.231934 
	C409.640381,323.436615 406.319977,323.571136 403.001587,323.738190 
	C404.828888,319.339447 406.645050,315.240845 411.155121,312.431000 
	C415.045837,310.007019 418.024017,306.103912 421.361725,302.810272 
	C426.393829,297.844666 431.495972,292.943237 436.362915,287.819397 
	C440.139801,283.843201 443.426086,279.396179 447.255676,275.476227 
	C450.962402,271.682068 455.125305,268.337463 459.012360,264.714447 
	C462.559906,261.407867 466.033875,258.020752 469.490662,254.618713 
	C474.412231,249.775055 479.388336,244.980545 484.152435,239.985092 
	C487.937683,236.015991 491.287231,231.628342 495.111633,227.700516 
	C498.814026,223.897949 502.865204,220.433685 506.789093,216.849167 
	C507.515381,216.185669 508.447815,215.740936 509.144226,215.052689 
	C514.290771,209.966690 519.511963,204.949188 524.487732,199.699783 
	C528.259827,195.720291 531.515381,191.245056 535.349609,187.332382 
	C539.061157,183.544952 543.264709,180.244385 547.166016,176.636887 
	C550.607666,173.454437 553.960876,170.174377 557.298645,166.882202 
	C562.331970,161.917786 567.421997,157.004272 572.290466,151.881439 
	C576.068542,147.905884 579.376038,143.478928 583.203430,139.555695 
	C586.908142,135.758072 591.002563,132.339523 594.943665,128.774261 
	C595.675171,128.112534 596.559937,127.613686 597.257874,126.922470 
	C602.281189,121.947647 607.375610,117.038673 612.244934,111.916222 
	C616.023560,107.941139 619.345581,103.528000 623.171875,99.603310 
	C626.876038,95.803986 630.956543,92.370628 634.892334,88.799164 
	C635.622192,88.136848 636.523132,87.656334 637.220032,86.965668 
	C642.241821,81.989075 647.329285,77.073135 652.199402,71.951118 
	C655.978699,67.976425 659.315674,63.577564 663.140381,59.650818 
	C666.843750,55.848621 671.024963,52.514393 674.775452,48.754253 
	C676.165588,47.360538 676.927673,45.340305 677.988647,43.213440 
	C687.290161,43.547394 696.730652,43.461834 705.837891,45.161644 
	C727.719971,49.245811 748.450745,56.909134 766.773193,69.727417 
	C802.837830,94.958099 825.915161,129.156998 834.143311,172.528229 
	C836.464966,184.766129 835.791260,197.572296 836.364258,210.572662 
M748.584167,118.703217 
	C740.960571,115.948296 734.768616,117.982262 731.953308,124.858261 
	C728.669861,132.877579 728.599915,141.227921 732.256714,149.149673 
	C735.856689,156.948257 746.330078,157.889923 751.816772,151.235977 
	C758.285461,143.391006 756.883118,125.921005 748.584167,118.703217 
M703.378357,127.525139 
	C705.258728,126.616364 707.139099,125.707596 709.233276,124.695511 
	C709.697510,125.760109 710.149536,126.329247 710.168213,126.912277 
	C710.349365,132.562683 710.401550,138.217468 710.606750,143.866791 
	C710.748352,147.763535 709.822571,150.313522 705.093140,149.977036 
	C703.934998,149.894623 702.662354,151.422226 701.442322,152.209625 
	C702.634094,153.029892 703.790527,154.490036 705.023865,154.558136 
	C710.000244,154.832901 715.007812,154.829224 719.986389,154.579285 
	C721.281799,154.514236 722.513794,153.185715 723.774902,152.437515 
	C722.615173,151.571091 721.473694,149.999649 720.292419,149.969177 
	C716.612732,149.874237 715.871033,147.954483 715.941833,144.817902 
	C716.061951,139.496506 716.167725,134.160339 715.897583,128.849792 
	C715.721985,125.398148 714.869385,121.980934 714.320129,118.548302 
	C710.486511,119.911179 706.647705,121.259895 702.826233,122.655983 
	C702.379028,122.819366 701.653625,123.307228 701.692505,123.537270 
	C701.928223,124.931717 702.348389,126.294975 703.378357,127.525139 
z"/>
<path fill="#AA419D" opacity="1.000000" stroke="none" 
	d="
M499.456665,842.267029 
	C499.392578,838.081421 501.377625,835.314941 504.806519,832.847046 
	C508.750305,830.008484 511.969513,826.153809 515.458740,822.695435 
	C520.208252,817.988037 524.965149,813.286255 529.625366,808.491211 
	C533.387207,804.620605 536.999207,800.604675 540.699158,796.673401 
	C543.724304,793.459045 546.663269,790.150879 549.854004,787.108215 
	C553.757507,783.386169 558.032593,780.048828 561.872131,776.266113 
	C565.712585,772.482483 569.169495,768.312622 572.877258,764.390320 
	C576.138123,760.940918 579.499329,757.585815 582.841309,754.213928 
	C587.665588,749.346680 592.444824,744.431824 597.371460,739.669922 
	C601.249573,735.921631 605.422485,732.477234 609.278320,728.707520 
	C613.136902,724.935242 616.757324,720.919922 620.495361,717.023743 
	C624.005798,713.364685 627.505615,709.694702 631.060425,706.078918 
	C635.750183,701.308716 640.427612,696.523743 645.225952,691.864014 
	C649.095276,688.106445 653.162964,684.554016 657.091980,680.856689 
	C660.066895,678.057190 663.045227,675.252808 665.871826,672.306458 
	C669.608032,668.411926 673.170593,664.351440 676.858643,660.409912 
	C679.762512,657.306458 682.636719,654.162598 685.716980,651.239990 
	C689.630188,647.526917 693.877197,644.160706 697.723083,640.383057 
	C701.570129,636.604248 705.058655,632.463196 708.781311,628.554138 
	C712.166565,624.999329 715.647522,621.535400 719.100342,618.045288 
	C723.805176,613.289795 728.458069,608.480347 733.255981,603.820435 
	C737.125061,600.062561 741.214050,596.532227 745.134949,592.826355 
	C748.586609,589.564026 751.961121,586.218994 755.332886,582.873474 
	C760.196350,578.047852 765.087891,573.248108 769.851318,568.324951 
	C773.603943,564.446594 777.155273,560.374451 780.844421,556.433716 
	C783.748962,553.331116 786.620911,550.185669 789.699768,547.261841 
	C793.611389,543.547119 797.854370,540.176697 801.700745,536.399353 
	C805.548340,532.620850 809.031860,528.474609 812.770142,524.580933 
	C816.281738,520.923340 819.914001,517.381287 823.500610,513.795898 
	C825.229736,512.067383 826.845947,510.192230 828.748962,508.680267 
	C830.893188,506.976746 833.302917,505.607361 835.916870,504.036133 
	C836.353210,506.133606 836.570984,508.287567 836.571655,510.441589 
	C836.589661,569.934937 836.710388,629.428711 836.507507,688.921387 
	C836.448486,706.223328 832.021423,722.819214 826.172791,739.011108 
	C820.434265,754.898193 812.151428,769.408569 801.315613,782.330322 
	C795.630554,789.109741 789.335876,795.402893 783.055237,801.653137 
	C765.872681,818.752380 744.935730,829.360168 722.009521,836.419373 
	C705.670227,841.450378 688.932129,842.655396 671.891479,842.569153 
	C614.566589,842.278870 557.239624,842.411072 499.456665,842.267029 
M684.870789,775.552246 
	C683.879761,771.403320 683.609863,766.891724 681.744446,763.182495 
	C678.107971,755.951782 667.019043,755.391235 662.323669,761.742004 
	C656.996765,768.947021 656.598999,783.271179 661.521973,790.611450 
	C665.195129,796.088196 670.870178,797.594299 676.663330,794.459473 
	C683.888855,790.549561 684.411743,783.495972 684.870789,775.552246 
M697.773254,794.717163 
	C702.271545,794.708984 706.781494,794.875671 711.260254,794.575562 
	C712.452759,794.495667 713.549438,792.984924 714.690063,792.131042 
	C713.575439,791.431152 712.436584,790.103943 711.350525,790.145813 
	C707.706726,790.286377 706.770386,788.583801 706.870056,785.299438 
	C707.031860,779.973022 707.076904,774.630981 706.850159,769.309204 
	C706.700012,765.785522 705.988953,762.285767 705.529053,758.775269 
	C701.680115,759.912537 697.829773,761.045105 693.984863,762.195801 
	C693.674133,762.288757 693.235168,762.438110 693.137390,762.676636 
	C692.628723,763.918945 692.211182,765.198547 691.761963,766.465149 
	C693.017395,766.586182 694.335083,767.003906 695.513062,766.756348 
	C697.136597,766.415100 698.654541,765.571472 701.168213,764.560913 
	C701.168213,771.562134 701.083557,777.526184 701.201294,783.486206 
	C701.267334,786.830933 701.005981,789.320312 696.552612,789.280579 
	C695.125122,789.267822 693.679138,791.319824 692.241577,792.427185 
	C693.782043,793.189575 695.322449,793.951965 697.773254,794.717163 
z"/>
<path fill="#8E4AB1" opacity="1.000000" stroke="none" 
	d="
M365.547363,42.699863 
	C361.619659,47.741859 357.438171,52.865257 352.813934,57.551785 
	C338.207062,72.355377 323.441193,87.002205 308.723907,101.696716 
	C293.768372,116.629089 278.782867,131.531418 263.837646,146.474045 
	C249.483063,160.826126 235.176483,175.226212 220.824432,189.580811 
	C205.881775,204.526169 190.899185,219.431610 175.953949,234.374405 
	C161.599518,248.726471 147.276047,263.109467 132.928940,277.468842 
	C118.108643,292.301849 103.274223,307.120758 88.449783,321.949615 
	C73.863708,336.540100 59.318752,351.172028 44.657364,365.686371 
	C42.598724,367.724365 39.980007,369.196625 37.256157,370.965332 
	C36.792030,368.842621 36.605782,366.685364 36.605179,364.528046 
	C36.589809,309.199158 36.709389,253.869919 36.533806,198.541595 
	C36.469551,178.293671 41.081127,159.176285 48.517330,140.524765 
	C58.143127,116.381279 73.617668,96.299347 93.102776,79.701073 
	C115.049980,61.005474 140.554611,48.723286 169.390030,44.572823 
	C178.866150,43.208862 188.528091,42.603962 198.107590,42.577843 
	C253.768311,42.426105 309.429779,42.550385 365.547363,42.699863 
M128.944244,148.407578 
	C130.583862,153.583557 134.701935,155.547180 139.553314,155.952972 
	C143.848312,156.312225 149.095367,152.206009 150.851578,147.543259 
	C153.317078,140.997345 153.753769,134.264481 151.978973,127.483765 
	C150.295593,121.052246 146.245468,117.563904 140.574570,117.376419 
	C134.820572,117.186188 129.325470,120.643059 128.419083,127.074539 
	C127.471634,133.797409 128.485870,140.796738 128.944244,148.407578 
M165.393250,120.911438 
	C159.104141,124.135262 159.104141,124.135262 161.168106,127.761696 
	C163.548676,126.587418 165.943832,125.405937 169.194199,123.802612 
	C169.194199,131.193756 168.998718,137.494446 169.262833,143.775787 
	C169.439270,147.971512 168.198898,149.991959 163.685394,149.766830 
	C162.579117,149.711655 161.388000,151.357483 160.235886,152.221268 
	C161.416382,153.035950 162.562531,154.487885 163.783386,154.553711 
	C168.758911,154.821930 173.768402,154.848831 178.740036,154.547150 
	C180.111771,154.463913 181.395813,152.935486 182.720093,152.070175 
	C181.527664,151.251511 180.342972,149.753799 179.141373,149.740097 
	C175.373154,149.697189 174.828369,147.636719 174.868530,144.566559 
	C174.964218,137.249161 174.781265,129.927307 174.930542,122.611740 
	C175.014984,118.472557 173.093582,117.632141 169.635376,118.818855 
	C168.388077,119.246880 167.243149,119.973228 165.393250,120.911438 
z"/>
<path fill="#F4E7FE" opacity="1.000000" stroke="none" 
	d="
M402.595764,323.881653 
	C406.319977,323.571136 409.640381,323.436615 412.956451,323.231934 
	C438.266266,321.669769 463.439362,323.205597 488.578491,326.210297 
	C490.885193,326.485992 494.282349,325.333038 495.767761,323.622833 
	C515.697388,300.677429 541.190186,287.094940 570.157166,279.845459 
	C608.189941,270.327179 645.444275,273.081665 681.442566,289.118866 
	C699.960449,297.368622 715.971375,309.116455 729.750732,324.401398 
	C735.900146,333.994598 742.883118,342.935303 747.457886,352.973480 
	C765.284119,392.088806 756.577759,436.441376 725.586853,468.855957 
	C709.489807,485.692413 690.193970,497.493500 668.272644,505.061096 
	C664.822388,506.252197 662.827698,508.016266 661.488464,511.508789 
	C651.964417,536.346924 635.322327,555.803833 614.586426,571.915466 
	C580.238403,598.603577 540.739868,613.530334 498.315948,620.799744 
	C480.320587,623.883301 461.933014,624.678040 443.333008,626.641357 
	C424.363129,625.518127 405.637848,625.331787 387.233215,622.807739 
	C339.316498,616.236450 294.938019,600.401978 256.232819,570.312744 
	C238.872314,556.816650 225.306442,540.466919 214.735443,521.021118 
	C212.510361,514.857056 209.928879,508.986969 208.804581,502.849915 
	C207.427139,495.330933 203.738388,490.819000 196.899384,487.260437 
	C185.292145,481.220825 175.613953,472.454407 167.413773,462.179962 
	C140.338898,428.256348 142.490967,383.657532 173.195938,352.283630 
	C199.565216,325.339844 232.666992,314.653564 269.576111,314.545258 
	C294.528412,314.472046 318.015167,320.614746 339.782867,333.085968 
	C341.706146,334.187836 344.523224,334.588257 346.730072,334.201477 
	C365.242493,330.956726 383.709351,327.451752 402.595764,323.881653 
M562.602112,519.906433 
	C561.574707,520.726501 560.559570,521.562439 559.517883,522.363953 
	C552.665649,527.636719 548.581238,534.157593 548.868530,543.235901 
	C549.275452,556.093811 558.934631,565.934998 571.824097,566.070068 
	C585.047546,566.208679 595.734436,556.783997 596.068420,544.689270 
	C596.476746,529.902649 587.726196,519.642639 574.167908,518.893250 
	C572.385559,518.794739 570.630127,518.208740 569.360474,517.394714 
	C577.681580,512.957581 581.630798,506.016541 581.411194,496.600433 
	C581.306274,492.104279 581.500122,487.600464 581.365479,483.105927 
	C581.282959,480.350311 582.259338,479.156281 585.110840,479.279449 
	C588.725647,479.435516 592.352356,479.317230 596.217773,479.317230 
	C596.217773,475.838837 596.217773,472.967926 596.217773,469.647217 
	C592.363281,469.647217 588.892944,469.565796 585.428589,469.674377 
	C582.902832,469.753510 581.622131,469.185181 581.294067,466.196808 
	C579.796326,452.552765 572.050964,445.696869 558.435181,445.665833 
	C540.440491,445.624817 522.445679,445.653595 504.450897,445.653442 
	C482.160156,445.653229 476.431580,451.124878 475.805756,473.407593 
	C475.714233,476.666046 474.710938,477.754486 471.467194,477.706757 
	C461.139099,477.554840 450.807373,477.652405 440.477051,477.652771 
	C429.708588,477.653168 429.708588,477.652740 429.381287,466.726105 
	C429.031433,455.046387 420.838806,445.951477 409.471313,445.788635 
	C387.482574,445.473541 365.484497,445.544800 343.493713,445.778839 
	C334.777618,445.871613 326.461914,451.662811 325.102448,460.032715 
	C323.841339,467.797089 321.477448,471.831879 312.911743,469.396790 
	C312.911743,473.071381 312.911743,475.957001 312.911743,479.309540 
	C315.065002,479.309540 316.890106,479.480133 318.671814,479.274414 
	C322.494202,478.833099 324.103638,480.100891 323.819275,484.218475 
	C323.475769,489.192657 323.587952,494.216553 323.795288,499.206787 
	C324.253937,510.246124 332.600586,519.032288 343.601013,519.180237 
	C365.590240,519.475952 387.589264,519.477722 409.578217,519.170837 
	C420.373230,519.020142 428.603882,510.432373 429.321594,499.636139 
	C429.476044,497.312775 429.596039,494.949249 429.348419,492.645416 
	C428.912537,488.589661 430.292480,487.101654 434.568695,487.213440 
	C445.391479,487.496490 456.226624,487.309174 467.056793,487.309875 
	C475.704773,487.310425 475.704803,487.310150 475.738159,496.094879 
	C475.794769,511.010162 484.042786,519.265625 498.984009,519.299438 
	C520.309509,519.347656 541.635193,519.362549 562.602112,519.906433 
M276.942139,540.707703 
	C274.736053,555.136658 289.537689,571.121643 308.637177,564.910889 
	C319.960327,561.228821 326.121521,549.630432 323.779694,537.239197 
	C321.710236,526.289185 311.500305,518.672058 299.233582,518.926453 
	C287.556702,519.168640 278.543854,527.622925 276.942139,540.707703 
M469.346405,590.692078 
	C475.100800,588.496948 480.996765,586.606995 486.569702,584.020874 
	C492.145050,581.433594 497.459625,578.255859 502.765991,575.129089 
	C505.532623,573.498901 506.725922,570.909729 504.845459,567.912109 
	C503.041321,565.036194 500.344910,564.742310 497.419037,566.222412 
	C496.531189,566.671509 495.721558,567.272766 494.861206,567.778931 
	C471.276947,581.656494 446.226501,588.438354 418.753784,583.506042 
	C403.613129,580.787720 389.813446,574.702332 376.706909,566.843811 
	C373.753601,565.072998 370.562744,564.216492 368.364014,567.722595 
	C366.020447,571.459717 368.261475,573.975525 371.423553,575.891113 
	C401.740234,594.257751 433.803284,601.344666 469.346405,590.692078 
z"/>
<path fill="#542B58" opacity="1.000000" stroke="none" 
	d="
M105.524521,782.722412 
	C103.874863,781.895386 102.663406,781.078918 101.451950,780.262451 
	C102.667404,779.465088 103.910065,777.953064 105.093430,777.998108 
	C109.442398,778.163757 110.468376,776.064636 110.338020,772.189087 
	C110.128471,765.959412 110.281799,759.717468 110.281799,752.363159 
	C107.626579,753.575256 106.260277,754.491943 104.771133,754.785400 
	C103.594452,755.017273 102.266830,754.483215 101.006226,754.289307 
	C101.610931,753.126343 101.939041,751.306641 102.868690,750.915161 
	C106.719780,749.293091 110.752678,748.102722 114.718842,746.753906 
	C115.137749,750.434875 115.767723,754.106934 115.923874,757.799011 
	C116.134422,762.777283 116.057365,767.772461 115.954201,772.757324 
	C115.890038,775.857971 116.626732,777.825073 120.287071,777.989319 
	C121.475433,778.042603 122.595497,779.618652 123.746826,780.498169 
	C122.473358,781.241211 121.232094,782.550537 119.920563,782.625183 
	C115.280930,782.889221 110.617264,782.731079 105.524521,782.722412 
z"/>
<path fill="#47274A" opacity="1.000000" stroke="none" 
	d="
M748.910034,118.893730 
	C756.883118,125.921005 758.285461,143.391006 751.816772,151.235977 
	C746.330078,157.889923 735.856689,156.948257 732.256714,149.149673 
	C728.599915,141.227921 728.669861,132.877579 731.953308,124.858261 
	C734.768616,117.982262 740.960571,115.948296 748.910034,118.893730 
M744.971008,137.461334 
	C742.846741,139.060715 740.774963,140.736496 738.586243,142.242264 
	C734.960999,144.736282 736.025085,147.212112 738.615601,149.533600 
	C741.430725,152.056412 745.513672,151.711060 747.848694,148.545807 
	C750.937256,144.359192 751.414246,139.616547 750.318665,133.835480 
	C748.234924,135.224747 746.885803,136.124191 744.971008,137.461334 
M744.786621,132.238785 
	C746.120728,130.218826 748.381409,128.233673 748.458984,126.166489 
	C748.509766,124.816780 745.464844,122.328812 743.675049,122.201591 
	C741.632202,122.056381 738.756042,123.429100 737.457031,125.091591 
	C734.503113,128.871765 734.346497,133.497620 735.405640,139.260864 
	C738.782837,136.737289 741.498413,134.708176 744.786621,132.238785 
z"/>
<path fill="#48274B" opacity="1.000000" stroke="none" 
	d="
M703.042664,127.596901 
	C702.348389,126.294975 701.928223,124.931717 701.692505,123.537270 
	C701.653625,123.307228 702.379028,122.819366 702.826233,122.655983 
	C706.647705,121.259895 710.486511,119.911179 714.320129,118.548294 
	C714.869385,121.980934 715.721985,125.398148 715.897583,128.849792 
	C716.167725,134.160339 716.061951,139.496506 715.941833,144.817902 
	C715.871033,147.954483 716.612732,149.874237 720.292419,149.969177 
	C721.473694,149.999649 722.615173,151.571091 723.774902,152.437515 
	C722.513794,153.185715 721.281799,154.514236 719.986389,154.579285 
	C715.007812,154.829224 710.000244,154.832901 705.023865,154.558136 
	C703.790527,154.490036 702.634094,153.029892 701.442322,152.209625 
	C702.662354,151.422226 703.934998,149.894623 705.093140,149.977036 
	C709.822571,150.313522 710.748352,147.763535 710.606750,143.866791 
	C710.401550,138.217468 710.349365,132.562683 710.168213,126.912277 
	C710.149536,126.329247 709.697510,125.760109 709.233276,124.695511 
	C707.139099,125.707596 705.258728,126.616364 703.042664,127.596901 
z"/>
<path fill="#482343" opacity="1.000000" stroke="none" 
	d="
M684.870728,776.003235 
	C684.411743,783.495972 683.888855,790.549561 676.663330,794.459473 
	C670.870178,797.594299 665.195129,796.088196 661.521973,790.611450 
	C656.598999,783.271179 656.996765,768.947021 662.323669,761.742004 
	C667.019043,755.391235 678.107971,755.951782 681.744446,763.182495 
	C683.609863,766.891724 683.879761,771.403320 684.870728,776.003235 
M673.125610,761.981689 
	C665.858704,762.487122 661.802917,770.623962 665.233948,778.788513 
	C668.366394,776.441162 671.406433,774.186401 674.421387,771.898621 
	C679.903259,767.738831 679.802612,766.067383 673.125610,761.981689 
M679.797974,775.632385 
	C678.722900,775.651184 677.378601,775.261536 676.620605,775.761292 
	C673.728333,777.668152 670.999268,779.828552 668.257385,781.956299 
	C664.608032,784.788269 664.902283,788.070923 668.957520,790.318298 
	C672.253967,792.145203 676.384094,790.950684 677.941467,786.925964 
	C679.212830,783.640503 679.314392,779.902344 679.797974,775.632385 
z"/>
<path fill="#4C2446" opacity="1.000000" stroke="none" 
	d="
M697.318115,794.715820 
	C695.322449,793.951965 693.782043,793.189575 692.241577,792.427185 
	C693.679138,791.319824 695.125122,789.267822 696.552612,789.280579 
	C701.005981,789.320312 701.267334,786.830933 701.201294,783.486206 
	C701.083557,777.526184 701.168213,771.562134 701.168213,764.560913 
	C698.654541,765.571472 697.136597,766.415100 695.513062,766.756348 
	C694.335083,767.003906 693.017395,766.586182 691.761963,766.465149 
	C692.211182,765.198547 692.628723,763.918945 693.137390,762.676636 
	C693.235168,762.438110 693.674133,762.288757 693.984863,762.195801 
	C697.829773,761.045105 701.680115,759.912537 705.529053,758.775269 
	C705.988953,762.285767 706.700012,765.785522 706.850159,769.309204 
	C707.076904,774.630981 707.031860,779.973022 706.870056,785.299438 
	C706.770386,788.583801 707.706726,790.286377 711.350525,790.145813 
	C712.436584,790.103943 713.575439,791.431152 714.690063,792.131104 
	C713.549438,792.984924 712.452759,794.495667 711.260254,794.575562 
	C706.781494,794.875671 702.271545,794.708984 697.318115,794.715820 
z"/>
<path fill="#31213A" opacity="1.000000" stroke="none" 
	d="
M128.793396,148.041382 
	C128.485870,140.796738 127.471634,133.797409 128.419083,127.074539 
	C129.325470,120.643059 134.820572,117.186188 140.574570,117.376419 
	C146.245468,117.563904 150.295593,121.052246 151.978973,127.483765 
	C153.753769,134.264481 153.317078,140.997345 150.851578,147.543259 
	C149.095367,152.206009 143.848312,156.312225 139.553314,155.952972 
	C134.701935,155.547180 130.583862,153.583557 128.793396,148.041382 
M133.727097,144.120148 
	C133.022491,148.094650 135.463699,150.545593 138.669128,150.765747 
	C140.960236,150.923126 144.649628,149.288971 145.536392,147.420319 
	C147.325485,143.650192 147.630554,139.175842 148.547745,134.991974 
	C147.943069,134.700958 147.338379,134.409927 146.733704,134.118912 
	C142.545975,137.272430 138.358231,140.425949 133.727097,144.120148 
M136.634491,122.821228 
	C132.159836,127.324089 130.795135,133.075256 133.175400,138.870270 
	C136.824066,136.122269 140.393234,133.497925 143.890701,130.781281 
	C147.099503,128.288849 147.236679,125.459129 143.775146,123.386322 
	C142.051682,122.354309 139.500977,122.703766 136.634491,122.821228 
z"/>
<path fill="#36233F" opacity="1.000000" stroke="none" 
	d="
M165.722382,120.737442 
	C167.243149,119.973228 168.388077,119.246880 169.635376,118.818855 
	C173.093582,117.632141 175.014984,118.472557 174.930542,122.611740 
	C174.781265,129.927307 174.964218,137.249161 174.868530,144.566559 
	C174.828369,147.636719 175.373154,149.697189 179.141373,149.740097 
	C180.342972,149.753799 181.527664,151.251511 182.720093,152.070175 
	C181.395813,152.935486 180.111771,154.463913 178.740036,154.547150 
	C173.768402,154.848831 168.758911,154.821930 163.783386,154.553711 
	C162.562531,154.487885 161.416382,153.035950 160.235886,152.221268 
	C161.388000,151.357483 162.579117,149.711655 163.685394,149.766830 
	C168.198898,149.991959 169.439270,147.971512 169.262833,143.775787 
	C168.998718,137.494446 169.194199,131.193756 169.194199,123.802612 
	C165.943832,125.405937 163.548676,126.587418 161.168106,127.761696 
	C159.104141,124.135262 159.104141,124.135262 165.722382,120.737442 
z"/>
<path fill="#603287" opacity="1.000000" stroke="none" 
	d="
M562.960754,519.391663 
	C541.635193,519.362549 520.309509,519.347656 498.984009,519.299438 
	C484.042786,519.265625 475.794769,511.010162 475.738159,496.094879 
	C475.704803,487.310150 475.704773,487.310425 467.056793,487.309875 
	C456.226624,487.309174 445.391479,487.496490 434.568695,487.213440 
	C430.292480,487.101654 428.912537,488.589661 429.348419,492.645416 
	C429.596039,494.949249 429.476044,497.312775 429.321594,499.636139 
	C428.603882,510.432373 420.373230,519.020142 409.578217,519.170837 
	C387.589264,519.477722 365.590240,519.475952 343.601013,519.180237 
	C332.600586,519.032288 324.253937,510.246124 323.795288,499.206787 
	C323.587952,494.216553 323.475769,489.192657 323.819275,484.218475 
	C324.103638,480.100891 322.494202,478.833099 318.671814,479.274414 
	C316.890106,479.480133 315.065002,479.309540 312.911743,479.309540 
	C312.911743,475.957001 312.911743,473.071381 312.911743,469.396790 
	C321.477448,471.831879 323.841339,467.797089 325.102448,460.032715 
	C326.461914,451.662811 334.777618,445.871613 343.493713,445.778839 
	C365.484497,445.544800 387.482574,445.473541 409.471313,445.788635 
	C420.838806,445.951477 429.031433,455.046387 429.381287,466.726105 
	C429.708588,477.652740 429.708588,477.653168 440.477051,477.652771 
	C450.807373,477.652405 461.139099,477.554840 471.467194,477.706757 
	C474.710938,477.754486 475.714233,476.666046 475.805756,473.407593 
	C476.431580,451.124878 482.160156,445.653229 504.450897,445.653442 
	C522.445679,445.653595 540.440491,445.624817 558.435181,445.665833 
	C572.050964,445.696869 579.796326,452.552765 581.294067,466.196808 
	C581.622131,469.185181 582.902832,469.753510 585.428589,469.674377 
	C588.892944,469.565796 592.363281,469.647217 596.217773,469.647217 
	C596.217773,472.967926 596.217773,475.838837 596.217773,479.317230 
	C592.352356,479.317230 588.725647,479.435516 585.110840,479.279449 
	C582.259338,479.156281 581.282959,480.350311 581.365479,483.105927 
	C581.500122,487.600464 581.306274,492.104279 581.411194,496.600433 
	C581.630798,506.016541 577.681580,512.957581 568.729248,517.621826 
	C566.385559,518.363220 564.673157,518.877441 562.960754,519.391663 
M419.522095,500.577026 
	C419.595581,489.591675 419.761932,478.605896 419.711456,467.621124 
	C419.674774,459.636200 415.326355,455.354126 407.232086,455.324738 
	C386.751587,455.250336 366.270416,455.246979 345.789948,455.325745 
	C337.725525,455.356750 333.492737,459.629913 333.408112,467.712769 
	C333.305237,477.535797 333.310242,487.361450 333.406403,497.184601 
	C333.485962,505.311401 337.676514,509.604919 345.716064,509.638031 
	C366.196472,509.722412 386.677521,509.647156 407.158234,509.679962 
	C413.155182,509.689545 417.427155,507.314575 419.522095,500.577026 
M536.499817,509.673462 
	C543.821533,509.672455 551.143494,509.708130 558.464905,509.661224 
	C567.527588,509.603149 571.682251,505.540314 571.734253,496.632812 
	C571.789551,487.148193 571.794983,477.662689 571.731689,468.178192 
	C571.674072,459.550415 567.477844,455.339355 558.803772,455.315155 
	C538.669312,455.259003 518.534485,455.261627 498.399902,455.312256 
	C489.650757,455.334259 485.470917,459.455109 485.398621,468.088104 
	C485.319244,477.572357 485.333374,487.058105 485.393158,496.542633 
	C485.449921,505.545807 489.536346,509.619476 498.558533,509.657532 
	C510.872070,509.709473 523.185974,509.672363 536.499817,509.673462 
z"/>
<path fill="#EABBE3" opacity="1.000000" stroke="none" 
	d="
M562.781433,519.649048 
	C564.673157,518.877441 566.385559,518.363220 568.480103,517.848755 
	C570.630127,518.208740 572.385559,518.794739 574.167908,518.893250 
	C587.726196,519.642639 596.476746,529.902649 596.068420,544.689270 
	C595.734436,556.783997 585.047546,566.208679 571.824097,566.070068 
	C558.934631,565.934998 549.275452,556.093811 548.868530,543.235901 
	C548.581238,534.157593 552.665649,527.636719 559.517883,522.363953 
	C560.559570,521.562439 561.574707,520.726501 562.781433,519.649048 
z"/>
<path fill="#ECBCE3" opacity="1.000000" stroke="none" 
	d="
M276.953857,540.261108 
	C278.543854,527.622925 287.556702,519.168640 299.233582,518.926453 
	C311.500305,518.672058 321.710236,526.289185 323.779694,537.239197 
	C326.121521,549.630432 319.960327,561.228821 308.637177,564.910889 
	C289.537689,571.121643 274.736053,555.136658 276.953857,540.261108 
z"/>
<path fill="#633689" opacity="1.000000" stroke="none" 
	d="
M468.960083,590.801636 
	C433.803284,601.344666 401.740234,594.257751 371.423553,575.891113 
	C368.261475,573.975525 366.020447,571.459717 368.364014,567.722595 
	C370.562744,564.216492 373.753601,565.072998 376.706909,566.843811 
	C389.813446,574.702332 403.613129,580.787720 418.753784,583.506042 
	C446.226501,588.438354 471.276947,581.656494 494.861206,567.778931 
	C495.721558,567.272766 496.531189,566.671509 497.419037,566.222412 
	C500.344910,564.742310 503.041321,565.036194 504.845459,567.912109 
	C506.725922,570.909729 505.532623,573.498901 502.765991,575.129089 
	C497.459625,578.255859 492.145050,581.433594 486.569702,584.020874 
	C480.996765,586.606995 475.100800,588.496948 468.960083,590.801636 
z"/>
<path fill="#96439F" opacity="1.000000" stroke="none" 
	d="
M745.253845,137.242493 
	C746.885803,136.124191 748.234924,135.224747 750.318665,133.835480 
	C751.414246,139.616547 750.937256,144.359192 747.848694,148.545807 
	C745.513672,151.711060 741.430725,152.056412 738.615601,149.533600 
	C736.025085,147.212112 734.960999,144.736282 738.586243,142.242264 
	C740.774963,140.736496 742.846741,139.060715 745.253845,137.242493 
z"/>
<path fill="#9643A0" opacity="1.000000" stroke="none" 
	d="
M744.500244,132.458923 
	C741.498413,134.708176 738.782837,136.737289 735.405640,139.260864 
	C734.346497,133.497620 734.503113,128.871765 737.457031,125.091591 
	C738.756042,123.429100 741.632202,122.056381 743.675049,122.201591 
	C745.464844,122.328812 748.509766,124.816780 748.458984,126.166489 
	C748.381409,128.233673 746.120728,130.218826 744.500244,132.458923 
z"/>
<path fill="#A33F96" opacity="1.000000" stroke="none" 
	d="
M673.499390,762.090210 
	C679.802612,766.067383 679.903259,767.738831 674.421387,771.898621 
	C671.406433,774.186401 668.366394,776.441162 665.233948,778.788513 
	C661.802917,770.623962 665.858704,762.487122 673.499390,762.090210 
z"/>
<path fill="#A33F96" opacity="1.000000" stroke="none" 
	d="
M679.866272,775.998657 
	C679.314392,779.902344 679.212830,783.640503 677.941467,786.925964 
	C676.384094,790.950684 672.253967,792.145203 668.957520,790.318298 
	C664.902283,788.070923 664.608032,784.788269 668.257385,781.956299 
	C670.999268,779.828552 673.728333,777.668152 676.620605,775.761292 
	C677.378601,775.261536 678.722900,775.651184 679.866272,775.998657 
z"/>
<path fill="#8847A8" opacity="1.000000" stroke="none" 
	d="
M133.948792,143.849808 
	C138.358231,140.425949 142.545975,137.272430 146.733704,134.118912 
	C147.338379,134.409927 147.943069,134.700958 148.547745,134.991974 
	C147.630554,139.175842 147.325485,143.650192 145.536392,147.420319 
	C144.649628,149.288971 140.960236,150.923126 138.669128,150.765747 
	C135.463699,150.545593 133.022491,148.094650 133.948792,143.849808 
z"/>
<path fill="#8747A9" opacity="1.000000" stroke="none" 
	d="
M136.979492,122.624771 
	C139.500977,122.703766 142.051682,122.354309 143.775146,123.386322 
	C147.236679,125.459129 147.099503,128.288849 143.890701,130.781281 
	C140.393234,133.497925 136.824066,136.122269 133.175400,138.870270 
	C130.795135,133.075256 132.159836,127.324089 136.979492,122.624771 
z"/>
<path fill="#F2E4FD" opacity="1.000000" stroke="none" 
	d="
M419.423035,500.980255 
	C417.427155,507.314575 413.155182,509.689545 407.158234,509.679962 
	C386.677521,509.647156 366.196472,509.722412 345.716064,509.638031 
	C337.676514,509.604919 333.485962,505.311401 333.406403,497.184601 
	C333.310242,487.361450 333.305237,477.535797 333.408112,467.712769 
	C333.492737,459.629913 337.725525,455.356750 345.789948,455.325745 
	C366.270416,455.246979 386.751587,455.250336 407.232086,455.324738 
	C415.326355,455.354126 419.674774,459.636200 419.711456,467.621124 
	C419.761932,478.605896 419.595581,489.591675 419.423035,500.980255 
z"/>
<path fill="#F2E4FD" opacity="1.000000" stroke="none" 
	d="
M535.999756,509.673431 
	C523.185974,509.672363 510.872070,509.709473 498.558533,509.657532 
	C489.536346,509.619476 485.449921,505.545807 485.393158,496.542633 
	C485.333374,487.058105 485.319244,477.572357 485.398621,468.088104 
	C485.470917,459.455109 489.650757,455.334259 498.399902,455.312256 
	C518.534485,455.261627 538.669312,455.259003 558.803772,455.315155 
	C567.477844,455.339355 571.674072,459.550415 571.731689,468.178192 
	C571.794983,477.662689 571.789551,487.148193 571.734253,496.632812 
	C571.682251,505.540314 567.527588,509.603149 558.464905,509.661224 
	C551.143494,509.708130 543.821533,509.672455 535.999756,509.673431 
z"/>
</svg>